<?xml version="1.0" standalone="no"?>
<!DOCTYPE svg PUBLIC "-//W3C//DTD SVG 20010904//EN"
 "http://www.w3.org/TR/2001/REC-SVG-20010904/DTD/svg10.dtd">
<svg version="1.0" xmlns="http://www.w3.org/2000/svg"
 width="512.000000pt" height="512.000000pt" viewBox="0 0 512.000000 512.000000"
 preserveAspectRatio="xMidYMid meet">

<g transform="translate(0.000000,512.000000) scale(0.100000,-0.100000)"
fill="#000000" stroke="none">
<path d="M3418 4675 c-3 -5 -9 -25 -13 -42 -6 -31 -12 -34 -78 -54 -164 -47
-218 -77 -271 -152 -40 -57 -59 -137 -54 -233 l3 -71 -74 -39 c-139 -73 -255
-214 -306 -370 -10 -33 -36 -73 -68 -110 -52 -58 -75 -102 -84 -162 -3 -18
-19 -47 -35 -64 -17 -18 -34 -42 -39 -53 -5 -13 -8 11 -8 65 -1 132 -36 239
-114 348 -56 77 -170 136 -293 150 -68 7 -70 8 -104 82 -4 8 -16 16 -28 18
-24 4 -45 -28 -36 -52 3 -9 4 -16 1 -16 -3 0 -67 23 -143 50 -165 60 -187 62
-210 19 -22 -43 -17 -62 67 -246 60 -134 71 -166 70 -210 -1 -41 7 -69 34
-125 20 -40 40 -75 46 -79 6 -3 -5 -15 -25 -27 -46 -27 -116 -135 -211 -322
-40 -80 -79 -158 -88 -175 -8 -16 -20 -46 -27 -65 -6 -19 -21 -60 -32 -90 -11
-30 -22 -82 -25 -115 -3 -51 0 -66 21 -100 14 -22 36 -61 50 -87 16 -29 57
-73 108 -116 46 -39 154 -141 240 -229 l156 -158 7 -177 c8 -188 28 -251 24
-78 -1 56 0 102 2 104 2 2 37 6 77 9 l72 6 0 -139 c0 -90 4 -141 11 -146 8 -4
10 21 8 89 -5 115 6 106 15 -13 4 -46 8 -85 9 -86 1 0 17 -4 36 -8 29 -5 32
-4 21 9 -7 8 -21 15 -31 15 -14 0 -19 7 -19 29 0 20 5 28 16 27 21 -1 39 27
31 48 -4 9 -17 16 -30 16 -23 0 -24 4 -34 113 -6 61 -9 114 -7 116 2 2 13 -4
23 -13 21 -19 43 -101 60 -231 18 -128 21 -145 30 -145 7 0 -20 222 -33 270
-7 25 -7 25 11 5 10 -11 33 -32 51 -47 l33 -28 44 30 c24 16 58 47 77 68 18
21 49 49 68 62 19 13 58 42 85 64 l50 40 -42 -45 c-52 -55 -98 -146 -117 -230
-19 -80 -35 -229 -25 -229 4 0 10 30 14 68 17 173 64 300 141 382 42 45 51 50
90 50 24 0 44 -2 44 -5 0 -2 -18 -28 -40 -57 -60 -79 -79 -128 -96 -247 -12
-81 -13 -122 -6 -162 l10 -54 1 90 c2 98 22 228 41 266 20 41 75 119 82 119 4
0 3 -11 -2 -24 -19 -52 -48 -446 -32 -446 5 0 12 73 16 162 4 88 9 165 12 170
3 4 15 2 27 -4 14 -9 64 -13 142 -13 l120 0 -12 -110 c-14 -132 -16 -200 -3
-170 4 11 13 81 20 156 11 130 32 264 41 274 3 2 43 -9 89 -25 84 -28 211 -51
180 -32 -8 5 -37 13 -65 17 -27 3 -77 17 -110 30 -33 13 -96 26 -140 30 -44 4
-98 16 -119 26 -27 13 -61 19 -107 19 -78 0 -198 15 -266 34 -27 7 -84 23
-128 35 -44 12 -102 32 -130 45 -27 12 -89 30 -137 39 -132 26 -218 55 -218
74 0 9 -16 44 -35 78 -49 88 -59 139 -36 190 34 77 153 156 324 213 61 20 81
32 54 32 -34 0 -229 -84 -290 -124 -70 -47 -116 -117 -117 -177 0 -21 16 -68
40 -118 22 -45 40 -86 40 -91 0 -8 -109 13 -146 29 -26 11 -121 203 -137 276
-15 75 2 137 51 188 46 48 172 110 276 137 82 20 104 30 70 30 -66 0 -246 -69
-320 -122 -119 -86 -129 -198 -34 -388 22 -44 37 -80 33 -80 -3 0 -39 20 -78
45 -67 42 -165 133 -165 154 0 5 -16 32 -35 61 -45 67 -46 114 -4 230 17 47
34 99 38 115 23 87 107 171 230 233 70 34 81 37 166 37 81 0 97 -3 155 -32 42
-21 86 -54 126 -95 105 -109 137 -139 204 -186 l64 -47 -3 -56 c-1 -34 4 -71
14 -97 23 -56 100 -124 190 -167 79 -38 85 -47 85 -126 0 -86 -45 -187 -124
-277 -16 -18 -26 -35 -24 -38 11 -10 90 92 123 160 38 76 53 167 37 221 -7 25
-24 38 -98 77 -107 57 -166 116 -183 184 -19 74 -9 96 52 117 157 55 214 59
314 22 37 -15 88 -32 113 -40 48 -15 113 -74 124 -112 11 -34 -20 -93 -74
-143 l-48 -45 10 -55 c16 -88 6 -196 -25 -257 -28 -54 -82 -113 -129 -141 -33
-19 -38 -38 -5 -21 85 46 148 130 174 233 14 58 15 81 5 153 l-11 85 31 26
c44 37 88 110 88 146 0 34 -32 94 -55 102 -22 9 -18 24 5 24 11 0 43 9 70 19
37 14 52 16 54 8 2 -7 9 -37 16 -67 50 -222 302 -433 652 -547 l118 -38 0
-130 0 -130 81 80 c279 276 455 613 525 1005 21 117 25 439 6 550 l-13 75
-151 152 c-84 84 -153 151 -155 149 -2 -1 8 -30 21 -63 79 -203 73 -493 -16
-709 -74 -180 -233 -370 -385 -460 -45 -27 -63 -25 -63 7 0 36 -29 77 -71 102
l-41 25 31 -3 c17 -1 34 -5 38 -9 12 -12 23 -6 23 14 0 18 2 19 20 8 17 -11
22 -10 30 1 7 12 11 12 24 2 14 -12 16 -9 16 25 l0 37 23 -21 c37 -35 51 -29
43 18 l-6 41 30 -16 c41 -21 53 -11 48 40 l-5 42 35 1 c44 2 47 5 34 41 -11
31 -10 31 29 37 43 7 46 11 24 40 -20 26 -19 31 10 38 26 7 32 20 15 31 -15 9
-12 25 4 25 23 0 29 20 12 39 -23 25 -20 38 4 16 24 -22 25 -16 5 32 -12 27
-12 39 -4 50 9 10 8 18 -4 31 -15 17 -15 19 0 35 16 16 16 18 -6 33 l-22 16
21 23 c22 23 22 23 2 34 -12 6 -28 11 -36 11 -20 0 -20 14 -1 30 26 21 18 40
-17 40 -31 0 -31 0 -12 21 16 17 16 22 4 30 -8 5 -23 7 -32 5 -19 -4 -25 9 -8
19 21 13 9 25 -26 25 -25 0 -35 4 -31 13 21 52 22 50 -15 45 l-35 -4 -7 89
c-4 62 -14 107 -32 150 -14 34 -30 85 -34 112 -29 177 -71 285 -114 293 -10 2
-37 -10 -61 -27 -41 -29 -49 -31 -134 -31 l-91 0 38 34 c85 77 105 170 75 346
-10 58 -21 101 -25 95z m-164 -206 c15 13 79 -6 70 -20 -10 -17 7 -31 19 -14
10 13 12 11 14 -12 4 -45 -6 -72 -30 -84 -19 -10 -20 -10 -10 2 9 11 6 23 -16
54 -24 35 -32 40 -65 39 -20 -1 -47 -10 -59 -20 -22 -19 -22 -19 -4 2 27 32
21 51 -8 24 -14 -13 -25 -28 -25 -33 0 -5 -10 -17 -22 -26 -15 -13 -22 -32
-26 -73 -4 -50 -2 -57 22 -76 25 -19 30 -20 71 -8 45 14 87 40 133 83 15 14
36 30 47 35 19 11 19 10 3 -9 -10 -11 -18 -24 -18 -30 0 -24 -73 -98 -109
-110 -50 -16 -158 -16 -164 0 -2 6 -4 40 -3 75 1 34 -1 62 -5 62 -10 0 -21
-84 -13 -105 5 -13 4 -16 -4 -11 -31 19 1 151 50 210 28 34 58 51 42 24 -5 -9
-3 -9 9 1 9 7 14 17 11 22 -3 5 1 6 9 4 7 -3 24 -2 38 3 18 7 25 6 27 -5 3
-10 7 -11 16 -4z m406 -294 c10 -22 21 -56 25 -75 l8 -35 -54 51 c-30 28 -65
56 -77 63 -26 14 -22 25 22 52 29 18 32 18 45 1 7 -9 21 -35 31 -57z m-131
-32 c36 -26 92 -72 124 -102 45 -42 57 -61 57 -84 0 -17 11 -53 24 -81 51
-108 43 -113 -41 -26 -42 45 -104 101 -137 126 -72 55 -242 139 -311 154 -27
7 -57 14 -65 17 -20 8 37 22 130 32 144 16 146 15 219 -36z m30 17 c50 -32
152 -130 135 -130 -6 0 -23 14 -40 31 -16 17 -57 51 -91 76 -35 25 -63 47 -63
49 0 9 16 2 59 -26z m-271 -62 c123 -43 243 -114 337 -200 64 -60 145 -155
145 -171 0 -4 -37 31 -82 77 -129 130 -299 232 -513 306 -88 31 -89 31 -37 26
29 -3 97 -20 150 -38z m-108 -8 c221 -73 429 -207 547 -350 l54 -65 -7 -83
c-4 -59 -3 -86 6 -97 8 -10 10 -30 5 -62 -11 -77 -37 -173 -46 -173 -5 0 -9 4
-9 9 0 20 -128 181 -204 256 -96 95 -172 155 -318 250 -84 56 -105 74 -98 85
28 44 0 193 -43 229 -10 7 -17 17 -17 22 0 16 41 10 130 -21z m-103 -46 c47
-83 39 -181 -18 -204 -42 -18 -63 -63 -63 -137 -1 -35 -4 -63 -7 -63 -3 0 -18
14 -35 31 -42 46 -100 68 -182 71 -60 3 -75 0 -101 -20 -17 -12 -31 -20 -31
-18 0 18 46 116 75 159 50 76 66 94 72 80 3 -7 13 -13 23 -13 16 0 18 -6 13
-33 -11 -70 59 -75 105 -7 27 41 26 81 -5 95 -25 11 -36 50 -17 66 10 8 13 4
16 -18 4 -32 34 -39 52 -11 8 14 7 22 -7 35 -16 17 -16 18 15 34 41 22 62 11
95 -47z m-117 -9 c0 -8 -4 -15 -9 -15 -13 0 -22 16 -14 24 11 11 23 6 23 -9z
m-72 -23 c2 -7 -6 -12 -17 -12 -21 0 -27 11 -14 24 9 9 26 2 31 -12z m-1322
-45 c-1 -18 20 -32 127 -87 99 -49 130 -61 136 -51 18 28 22 -11 10 -87 -9
-54 -22 -90 -42 -120 -56 -84 -89 -170 -86 -228 2 -30 -2 -55 -7 -55 -5 -1
-25 29 -46 67 -29 56 -36 80 -37 128 -1 51 -11 80 -72 214 -83 181 -90 211
-61 240 18 18 26 20 50 11 20 -7 28 -16 28 -32z m1292 -5 c-9 -11 -14 -11 -26
2 -20 20 -7 39 18 24 14 -9 16 -15 8 -26z m-1053 -70 c-24 -3 -198 62 -203 76
-1 5 48 -9 110 -32 63 -23 104 -42 93 -44z m1121 73 c15 -38 -27 -105 -66
-105 -32 0 -27 55 9 91 33 32 49 36 57 14z m-1056 -21 c6 -14 21 -40 35 -58
13 -17 31 -47 39 -66 12 -28 15 -31 16 -12 0 27 15 28 57 2 48 -29 63 -59 72
-146 l8 -79 2 72 c1 85 -17 131 -61 157 -42 25 -27 32 26 12 60 -23 106 -75
107 -124 2 -49 0 -99 -7 -139 -3 -19 -1 -33 5 -33 5 0 13 36 17 80 6 68 9 78
21 68 10 -8 14 -34 13 -97 -2 -104 0 -113 10 -81 4 14 8 55 9 93 1 59 3 67 20
67 33 0 51 -38 51 -110 0 -96 -47 -190 -142 -283 -67 -66 -72 -69 -85 -51 -33
47 -89 95 -129 110 -33 12 -66 15 -133 12 l-89 -4 -7 49 c-5 45 -2 59 34 134
23 47 51 99 63 116 13 18 24 41 25 52 0 11 4 49 8 85 5 46 2 82 -9 124 -9 32
-13 63 -10 67 10 16 24 9 34 -17z m950 6 c0 -5 -5 -10 -11 -10 -5 0 -7 5 -4
10 3 6 8 10 11 10 2 0 4 -4 4 -10z m-717 -110 c32 -12 77 -36 100 -54 41 -31
127 -146 127 -169 -1 -7 -7 0 -16 15 -16 30 -49 52 -64 43 -17 -10 -50 27 -44
50 9 36 -37 79 -110 104 -36 12 -75 21 -88 20 -42 -4 -68 1 -68 12 0 17 94 5
163 -21z m1079 -66 c194 -123 373 -283 483 -434 51 -70 67 -112 46 -124 -5 -3
-35 29 -66 72 -113 150 -311 329 -525 472 -36 24 -67 45 -70 47 -5 5 21 23 34
23 5 0 49 -25 98 -56z m-32 -77 c0 -74 65 -236 140 -349 41 -61 328 -353 338
-343 3 3 -60 69 -140 147 -193 191 -264 299 -308 473 -11 43 -18 80 -17 82 2
2 53 -34 112 -79 140 -106 273 -238 364 -360 l73 -97 -13 -38 c-33 -102 -154
-350 -185 -381 -19 -18 -34 -39 -34 -47 0 -19 -6 -19 -65 1 -54 19 -124 85
-156 146 -26 51 -24 62 19 105 21 21 43 47 49 57 10 18 20 12 117 -68 58 -48
110 -86 116 -84 5 2 -41 43 -101 92 -84 68 -108 92 -103 105 4 9 9 35 12 57 5
53 -18 97 -59 114 -28 12 -39 11 -77 -3 -53 -19 -50 -21 -109 82 -50 87 -92
200 -96 254 -1 25 -6 49 -10 53 -11 11 -9 129 3 159 l10 26 60 -41 c44 -30 60
-47 60 -63z m-962 41 c-2 -9 -10 -1 -20 20 l-17 36 20 -21 c12 -11 19 -27 17
-35z m697 -36 c22 -11 55 -36 73 -55 30 -30 34 -43 38 -98 8 -124 15 -165 39
-223 29 -72 20 -103 -34 -121 -28 -9 -31 -13 -17 -18 10 -4 27 -7 38 -7 17 0
20 -5 15 -30 -10 -48 -35 -76 -80 -90 -33 -10 -38 -14 -23 -19 17 -7 16 -10
-14 -45 -40 -44 -104 -79 -181 -96 -105 -23 -305 0 -363 43 -18 13 -18 18 -4
87 13 67 16 74 39 75 13 1 50 2 82 3 31 1 57 5 57 10 0 4 -12 15 -28 25 -87
56 -92 61 -90 97 1 19 -4 45 -11 58 -12 22 -7 29 71 105 l83 81 -33 4 c-38 4
-39 23 -1 32 19 5 24 13 25 37 1 42 87 147 134 167 31 12 145 -1 185 -22z
m955 -109 c0 -5 -4 -14 -9 -22 -8 -13 -12 -13 -26 -1 -16 13 -16 15 2 21 24
10 33 10 33 2z m-2 -80 c97 -118 136 -218 130 -337 -6 -137 -101 -276 -265
-390 -63 -43 -190 -103 -199 -93 -13 13 21 49 69 73 237 119 375 327 339 509
-13 64 -50 143 -91 195 -27 34 -46 90 -31 90 5 0 26 -21 48 -47z m42 12 c-10
-12 -16 -13 -26 -4 -20 16 -18 19 12 19 22 0 25 -2 14 -15z m-1524 -57 c46
-101 4 -232 -105 -329 -45 -40 -62 -49 -93 -49 -36 0 -38 2 -38 33 0 17 -4 38
-9 45 -6 10 14 36 69 90 77 77 140 180 140 231 0 33 15 25 36 -21z m1574 24
c0 -19 -23 -32 -37 -21 -20 17 -15 29 12 29 14 0 25 -4 25 -8z m-60 -149 c58
-155 18 -298 -121 -429 -54 -51 -166 -131 -173 -123 -2 2 27 72 65 154 71 157
139 349 159 449 l12 59 19 -29 c11 -16 28 -52 39 -81z m90 88 c0 -5 -7 -14
-15 -21 -8 -7 -15 -10 -15 -7 0 3 -3 12 -6 21 -4 12 0 16 15 16 12 0 21 -4 21
-9z m31 -61 c15 0 10 -17 -8 -24 -9 -4 -20 -1 -25 6 -12 21 -9 31 8 24 9 -3
20 -6 25 -6z m-2062 -56 c65 -19 122 -69 155 -136 30 -59 27 -74 -6 -32 -42
55 -93 97 -147 122 -74 34 -181 29 -261 -14 -77 -40 -79 -41 -45 -4 34 37 57
48 135 66 75 17 107 17 169 -2z m471 -35 c0 -24 -91 -149 -119 -163 -48 -25
-47 -19 5 37 27 28 60 73 74 99 22 42 40 54 40 27z m1600 12 c0 -6 -4 -13 -10
-16 -5 -3 -10 1 -10 9 0 9 5 16 10 16 6 0 10 -4 10 -9z m-2102 -26 c34 -11 69
-32 107 -67 74 -68 101 -117 110 -200 l7 -68 -66 65 c-40 41 -87 76 -123 93
-52 24 -68 27 -168 26 -94 0 -120 -4 -180 -27 -38 -14 -71 -24 -73 -22 -2 2
12 28 32 59 24 37 54 67 88 89 105 66 173 79 266 52z m497 -95 c-15 -29 -67
-70 -89 -70 -6 0 2 12 16 28 14 15 38 47 54 72 25 39 29 42 32 23 2 -12 -4
-36 -13 -53z m934 31 c33 -33 36 -82 8 -137 -14 -27 -36 -59 -49 -71 -59 -56
-208 -92 -241 -58 -9 9 -17 20 -17 24 0 7 37 45 108 110 22 20 32 39 32 58 0
34 24 71 54 83 37 15 85 11 105 -9z m-913 -56 c-26 -39 -38 -29 -14 12 12 20
24 31 26 24 2 -6 -3 -23 -12 -36z m1584 20 c0 -8 -4 -15 -10 -15 -5 0 -7 7 -4
15 4 8 8 15 10 15 2 0 4 -7 4 -15z m-1540 -35 c0 -5 -7 -10 -16 -10 -8 0 -12
5 -9 10 3 6 10 10 16 10 5 0 9 -4 9 -10z m1540 -42 c0 -5 -7 -8 -15 -8 -17 0
-18 2 -9 25 5 13 8 14 15 3 5 -7 9 -16 9 -20z m-2145 7 c44 -8 104 -36 154
-73 50 -39 121 -131 121 -157 0 -20 -11 -13 -74 50 -50 49 -97 84 -143 107
-61 30 -76 33 -158 33 -77 0 -98 -4 -149 -28 -32 -15 -81 -43 -107 -62 -27
-19 -51 -35 -53 -35 -2 0 9 25 25 54 27 49 36 57 84 75 123 46 186 54 300 36z
m497 -64 c-15 -56 -15 -62 3 -101 11 -25 37 -54 67 -77 40 -29 98 -108 86
-118 -2 -1 -19 -5 -38 -8 -34 -6 -36 -5 -87 67 -49 68 -143 249 -143 274 0 7
10 14 23 17 29 6 90 11 98 8 4 -2 0 -30 -9 -62z m678 8 c0 -6 -4 -18 -9 -27
-24 -48 -21 -67 14 -90 30 -21 33 -27 24 -50 -12 -30 -14 -100 -5 -129 6 -18
-3 -24 -71 -49 -103 -38 -163 -37 -263 6 -42 19 -99 35 -133 38 -55 5 -60 7
-73 36 -18 40 -29 54 -87 100 -26 21 -46 40 -45 42 2 1 30 -7 63 -19 79 -27
253 -30 335 -5 71 22 144 70 170 113 19 31 34 41 68 44 6 0 12 -4 12 -10z
m941 -12 c-13 -13 -26 -3 -16 12 3 6 11 8 17 5 6 -4 6 -10 -1 -17z m-21 -67
c-8 -5 -23 -10 -33 -10 -16 0 -17 1 -1 26 16 23 18 24 33 9 14 -14 14 -17 1
-25z m-48 -54 c5 -27 -11 -40 -37 -30 -12 5 -12 9 2 30 20 31 29 30 35 0z
m-62 -93 c0 -26 -14 -28 -49 -9 l-23 13 28 21 c31 22 44 15 44 -25z m-77 -40
c7 -36 2 -40 -23 -18 -15 14 -17 21 -9 32 17 20 26 16 32 -14z m-57 -33 c0
-24 -20 -21 -24 3 -2 9 3 17 10 17 8 0 14 -9 14 -20z m-46 -21 c0 -18 -2 -20
-15 -9 -13 11 -13 15 -3 21 18 12 18 12 18 -12z m-50 -19 c0 -5 -2 -10 -4 -10
-3 0 -8 5 -11 10 -3 6 -1 10 4 10 6 0 11 -4 11 -10z m-481 -50 c28 -108 139
-237 295 -341 89 -60 237 -136 311 -160 22 -7 46 -20 53 -28 17 -20 16 -71 -2
-71 -25 0 -247 80 -310 112 -186 93 -318 213 -385 349 -38 78 -65 171 -53 184
3 3 22 5 42 5 35 0 37 -2 49 -50z m186 23 c33 -8 80 -23 105 -33 178 -70 176
-70 224 -128 25 -31 60 -85 76 -120 31 -62 78 -227 68 -237 -3 -3 -34 5 -69
18 -169 64 -350 178 -452 286 -66 70 -127 175 -127 219 0 24 1 24 58 17 31 -3
84 -13 117 -22z m-1364 -655 l79 -21 0 -129 0 -128 -27 -11 c-30 -11 -122 -25
-124 -18 -4 13 -13 329 -10 329 2 0 39 -10 82 -22z m162 -43 c8 -8 25 -30 37
-50 25 -40 27 -41 53 -18 20 19 19 19 124 -43 31 -18 33 -18 50 0 17 17 17 18
-4 11 -15 -4 -37 2 -68 20 -25 15 -45 28 -45 30 0 1 28 -4 63 -13 73 -18 94
-34 72 -52 -19 -16 -19 -44 0 -60 12 -10 20 -9 40 4 24 16 29 27 26 54 -2 13
10 14 49 3 23 -6 21 -10 -44 -56 -38 -28 -94 -75 -125 -107 -31 -31 -68 -64
-83 -73 -27 -16 -27 -16 -73 26 -26 24 -55 59 -65 79 -10 19 -30 46 -44 59
-19 18 -26 34 -26 63 0 36 1 38 16 23 20 -20 38 -15 42 13 4 25 -25 72 -44 72
-8 0 -14 7 -14 15 0 20 44 20 63 0z m62 -12 c19 -9 35 -20 35 -24 0 -8 -29
-33 -33 -28 -22 28 -47 69 -43 69 3 0 21 -8 41 -17z m-75 -74 c0 -16 -18 -10
-34 13 -26 37 -19 57 9 25 14 -15 25 -32 25 -38z m345 -44 c0 -25 -31 -43 -46
-28 -10 10 -8 17 6 33 21 24 40 21 40 -5z m375 -25 c28 -11 71 -20 95 -20 25
0 45 -4 45 -10 0 -28 -24 -116 -34 -122 -31 -21 -276 -3 -276 20 0 4 10 40 21
80 l22 72 38 0 c21 0 61 -9 89 -20z m-710 -306 c0 -9 -5 -14 -12 -12 -18 6
-21 28 -4 28 9 0 16 -7 16 -16z"/>
<path d="M2980 4005 c-26 -31 13 -82 44 -56 19 16 21 42 4 59 -16 16 -33 15
-48 -3z m40 -25 c0 -21 -24 -28 -35 -10 -8 14 3 30 21 30 8 0 14 -9 14 -20z"/>
<path d="M2760 3911 c-6 -13 -7 -22 0 -26 6 -4 5 -13 -3 -25 -9 -16 -9 -23 6
-37 16 -16 18 -16 34 0 14 14 15 21 6 36 -6 10 -8 23 -3 32 9 13 -5 39 -21 39
-5 0 -13 -9 -19 -19z m30 -5 c0 -3 -4 -8 -10 -11 -5 -3 -10 -1 -10 4 0 6 5 11
10 11 6 0 10 -2 10 -4z m0 -61 c0 -8 -4 -15 -10 -15 -5 0 -10 7 -10 15 0 8 5
15 10 15 6 0 10 -7 10 -15z"/>
<path d="M2978 3919 c-10 -5 -18 -20 -18 -32 0 -49 53 -64 72 -22 9 21 8 28
-7 45 -21 23 -23 23 -47 9z m40 -37 c3 -16 -2 -22 -17 -22 -24 0 -33 13 -25
35 9 23 38 14 42 -13z"/>
<path d="M2915 3840 c-15 -17 -16 -24 -6 -46 14 -31 47 -30 68 3 13 19 12 24
-6 42 -26 26 -33 26 -56 1z m53 -23 c4 -20 -25 -34 -40 -19 -15 15 -1 44 19
40 10 -2 19 -11 21 -21z"/>
<path d="M2817 3823 c-11 -11 -8 -48 5 -61 32 -32 87 18 58 53 -13 15 -51 20
-63 8z m51 -31 c3 -16 -2 -22 -17 -22 -26 0 -36 17 -20 36 16 19 33 13 37 -14z"/>
<path d="M1560 3862 c0 -5 23 -41 50 -80 52 -75 85 -101 102 -84 18 18 -2 50
-69 112 -63 57 -83 70 -83 52z"/>
<path d="M3096 3559 c-29 -42 15 -82 55 -50 21 16 22 22 11 45 -14 32 -45 34
-66 5z m52 -21 c-4 -27 -33 -36 -42 -13 -8 22 1 35 25 35 15 0 20 -6 17 -22z"/>
<path d="M3134 3449 c-13 -15 -16 -24 -8 -36 20 -32 41 -38 63 -19 26 23 26
38 3 59 -24 22 -35 21 -58 -4z m54 -22 c4 -20 -25 -34 -40 -19 -15 15 -1 44
19 40 10 -2 19 -11 21 -21z"/>
<path d="M3186 3334 c-9 -8 -16 -22 -16 -29 0 -13 26 -45 36 -45 19 0 44 24
44 43 0 43 -35 60 -64 31z m52 -27 c4 -20 -25 -34 -40 -19 -15 15 -1 44 19 40
10 -2 19 -11 21 -21z"/>
<path d="M3410 3095 c-15 -18 -6 -61 14 -68 19 -7 56 20 56 42 0 37 -46 55
-70 26z m48 -19 c6 -29 -15 -43 -35 -24 -14 14 -14 20 -3 33 16 19 34 15 38
-9z"/>
<path d="M3506 3037 c-38 -27 2 -95 42 -71 24 16 28 55 6 71 -10 7 -21 13 -24
13 -3 0 -14 -6 -24 -13z m46 -19 c12 -33 -19 -51 -41 -25 -8 10 -7 17 1 25 16
16 35 15 40 0z"/>
<path d="M2643 3657 c-44 -48 -56 -97 -24 -97 37 0 124 91 104 111 -6 6 -21
-6 -42 -31 -39 -49 -64 -54 -27 -6 29 39 20 58 -11 23z"/>
<path d="M2675 3579 c-4 -5 -4 -21 -1 -35 6 -22 10 -25 37 -19 85 19 128 3
204 -74 27 -27 50 -49 52 -47 1 1 -2 19 -8 39 -23 84 -117 147 -221 147 -31 0
-60 -5 -63 -11z"/>
<path d="M2730 3513 c0 -5 16 -15 35 -21 19 -7 48 -31 66 -53 17 -22 34 -38
37 -35 7 8 -45 74 -71 90 -30 19 -67 29 -67 19z"/>
<path d="M2667 3468 c-2 -13 -7 -30 -11 -39 -5 -12 5 -21 44 -38 56 -24 157
-47 166 -38 12 12 -72 101 -111 118 -55 25 -82 24 -88 -3z m51 -29 c-2 -6 -8
-10 -13 -10 -5 0 -11 4 -13 10 -2 6 4 11 13 11 9 0 15 -5 13 -11z m72 -24 c22
-23 22 -25 4 -25 -29 0 -48 16 -41 34 8 21 9 20 37 -9z"/>
<path d="M2567 3378 c-38 -44 -43 -54 -31 -66 18 -18 18 -31 -3 -54 -9 -10
-11 -18 -5 -18 6 0 19 11 27 24 13 19 14 29 5 46 -10 18 -6 28 30 70 23 28 37
50 32 50 -6 0 -30 -23 -55 -52z"/>
<path d="M2440 3290 c0 -6 8 -14 18 -17 9 -4 20 -11 23 -16 13 -19 30 3 19 24
-11 20 -60 27 -60 9z"/>
<path d="M3245 3193 c-17 -3 -65 -61 -65 -78 0 -15 18 -1 38 30 18 29 28 35
56 35 39 0 59 -19 59 -56 0 -37 -31 -74 -93 -111 -30 -18 -46 -33 -36 -33 26
0 105 58 127 93 26 43 24 73 -6 102 -23 24 -37 27 -80 18z"/>
<path d="M3122 3036 c-26 -25 -30 -34 -20 -44 6 -6 16 -12 20 -12 14 0 81 71
74 78 -4 3 -20 -8 -37 -26 -16 -18 -35 -32 -41 -32 -7 0 1 13 17 30 39 40 28
46 -13 6z"/>
<path d="M2199 1833 c-22 -25 -19 -138 4 -160 18 -17 19 -17 38 6 24 29 26
116 3 149 -18 26 -27 27 -45 5z m43 -38 c9 -34 0 -103 -14 -112 -16 -9 -28 19
-28 69 0 79 25 105 42 43z"/>
<path d="M1669 2890 c-67 -10 -125 -27 -118 -35 3 -2 41 2 84 10 169 30 307
15 410 -46 20 -12 38 -19 41 -16 8 7 -72 53 -126 72 -55 20 -201 27 -291 15z"/>
<path d="M2587 2682 c-17 -18 -12 -36 13 -44 10 -4 4 -8 -15 -13 -16 -4 -40
-14 -52 -21 -13 -8 -23 -10 -23 -5 0 16 -40 20 -55 4 -27 -26 -11 -63 27 -63
15 0 16 -3 6 -19 -16 -26 6 -53 41 -49 22 2 26 8 26 33 l0 30 63 0 c54 0 67 3
82 23 11 13 21 18 25 12 10 -17 54 -11 64 8 13 25 -14 66 -39 59 -13 -3 -17 0
-13 9 8 21 -42 40 -62 24 -13 -11 -18 -10 -31 8 -18 27 -36 28 -57 4z m48 -11
c3 -5 1 -13 -5 -16 -15 -9 -43 3 -35 15 8 13 32 13 40 1z m85 -20 c0 -6 -5
-13 -10 -16 -15 -9 -43 3 -35 15 8 13 45 13 45 1z m-56 -17 c5 -12 2 -15 -10
-10 -8 3 -18 6 -20 6 -3 0 -2 5 1 10 9 15 22 12 29 -6z m56 -30 c0 -14 -3 -15
-17 -3 -10 7 -20 15 -22 16 -2 2 5 3 17 3 14 0 22 -6 22 -16z m55 6 c4 -6 1
-18 -6 -26 -11 -13 -14 -13 -27 0 -8 8 -11 19 -8 25 9 14 33 14 41 1z m-96
-17 c23 -15 23 -17 6 -30 -11 -7 -42 -13 -70 -13 -28 0 -59 6 -70 13 -17 13
-17 15 6 30 13 10 42 17 64 17 22 0 51 -7 64 -17z m-182 -9 c8 -21 -13 -42
-28 -27 -13 13 -5 43 11 43 6 0 13 -7 17 -16z m38 -34 c3 -5 -1 -10 -9 -10 -9
0 -16 5 -16 10 0 6 4 10 9 10 6 0 13 -4 16 -10z m11 -31 c10 -17 -23 -46 -37
-32 -7 7 -9 19 -6 27 7 18 33 21 43 5z"/>
<path d="M2480 2665 c-10 -12 -10 -18 0 -31 18 -21 64 -14 68 10 7 33 -45 49
-68 21z m54 -14 c7 -11 -22 -23 -35 -15 -5 3 -9 9 -9 15 0 12 37 12 44 0z"/>
<path d="M2984 2531 c26 -49 38 -153 26 -227 -12 -76 -30 -123 -67 -177 -14
-20 -24 -40 -21 -43 8 -8 45 47 76 113 24 52 27 69 27 168 0 87 -4 119 -19
153 -10 23 -23 42 -28 42 -5 0 -2 -13 6 -29z"/>
<path d="M2694 2529 c-24 -27 -8 -54 32 -54 23 0 30 5 32 24 3 15 -3 30 -14
38 -24 17 -28 17 -50 -8z m49 -13 c8 -20 -20 -43 -35 -28 -14 14 -3 42 16 42
7 0 16 -6 19 -14z"/>
<path d="M2592 2498 c-32 -32 8 -80 48 -58 34 18 19 70 -20 70 -9 0 -21 -5
-28 -12z m45 -14 c8 -21 -13 -42 -28 -27 -13 13 -5 43 11 43 6 0 13 -7 17 -16z"/>
<path d="M3520 1917 c0 -3 20 -37 44 -77 24 -39 54 -95 66 -125 12 -30 26 -55
31 -55 15 0 12 7 -47 121 -48 91 -94 159 -94 136z"/>
<path d="M3050 1733 c0 -4 20 -28 44 -53 40 -40 148 -193 159 -223 2 -7 8 -9
12 -5 8 8 -83 151 -140 218 -39 46 -75 77 -75 63z"/>
<path d="M3200 1717 c0 -6 201 -207 206 -207 12 0 -45 69 -104 128 -55 54
-102 90 -102 79z"/>
<path d="M565 1505 c-17 -14 -45 -32 -62 -40 -18 -8 -33 -20 -33 -27 0 -7 -10
-18 -22 -23 -16 -7 -23 -19 -23 -38 0 -37 -33 -64 -49 -41 -7 8 -18 16 -26 18
-8 2 -22 6 -30 9 -8 3 -33 8 -55 10 -22 3 -47 8 -56 12 -15 5 -16 1 -8 -40 5
-26 7 -51 4 -55 -3 -5 -1 -11 5 -15 6 -4 8 -10 5 -15 -3 -5 2 -16 11 -24 11
-12 12 -16 2 -16 -9 -1 -7 -5 4 -14 10 -7 15 -16 11 -20 -4 -4 3 -9 16 -13 16
-4 19 -8 10 -14 -18 -11 31 -29 77 -29 19 0 48 -7 64 -15 22 -11 30 -12 33 -2
4 9 8 9 15 -1 6 -10 11 0 15 31 5 33 1 54 -13 83 -40 78 -22 142 65 224 l59
55 12 -30 c7 -17 13 -40 14 -52 0 -26 16 -38 26 -21 4 6 2 14 -4 16 -7 2 -12
13 -13 25 0 12 -6 37 -12 54 l-12 33 -30 -25z m-260 -169 c54 -24 64 -35 84
-80 11 -27 11 -28 -5 -15 -15 13 -16 12 -9 -11 4 -14 11 -29 16 -34 22 -24 9
-34 -33 -25 -78 18 -121 65 -134 148 -6 36 -4 41 12 41 11 0 42 -11 69 -24z"/>
<path d="M250 1321 c0 -5 4 -21 10 -36 10 -28 76 -63 91 -48 13 14 -19 73 -46
83 -33 13 -55 13 -55 1z"/>
<path d="M2420 1515 c-6 -7 -10 -24 -8 -37 2 -17 10 -23 28 -23 20 0 26 6 28
27 4 33 -29 56 -48 33z m33 -20 c8 -18 -11 -31 -25 -17 -11 11 -3 32 12 32 4
0 10 -7 13 -15z"/>
<path d="M527 1420 c-42 -33 -61 -130 -26 -130 43 0 84 64 74 116 -7 39 -13
41 -48 14z"/>
<path d="M2414 1386 c-10 -26 4 -48 28 -44 17 2 23 10 23 28 0 18 -6 26 -23
28 -13 2 -25 -3 -28 -12z m41 -15 c7 -12 -12 -24 -25 -16 -11 7 -4 25 10 25 5
0 11 -4 15 -9z"/>
<path d="M620 1358 c-1 -53 -53 -129 -114 -165 -7 -5 -16 -25 -19 -46 l-6 -39
23 25 c13 14 46 37 74 51 53 27 77 57 39 49 -20 -4 -19 -2 6 17 30 24 36 43
10 33 -17 -6 -17 -5 0 14 14 16 15 22 5 26 -10 3 -10 7 -1 17 12 13 7 40 -8
40 -5 0 -9 -10 -9 -22z"/>
<path d="M2390 1281 c0 -6 7 -28 16 -50 11 -28 25 -43 55 -56 33 -15 79 -67
79 -89 0 -3 -18 -6 -40 -6 -41 0 -52 -14 -28 -38 21 -21 57 -14 71 14 l12 27
5 -23 c12 -50 71 -51 78 -1 3 18 -2 21 -28 21 -33 0 -33 -1 -74 112 -14 38
-25 50 -59 66 -59 28 -87 35 -87 23z"/>
<path d="M2710 1125 c0 -48 2 -55 20 -55 18 0 20 -7 20 -76 0 -67 -2 -76 -20
-81 -19 -5 -20 -14 -20 -194 l0 -189 36 -40 c35 -39 39 -40 99 -40 48 0 70 5
96 23 31 21 79 80 79 98 0 6 -85 59 -95 59 -1 0 -5 -22 -8 -50 -8 -66 -31
-100 -68 -100 -18 0 -32 7 -39 19 -6 12 -10 99 -10 215 0 194 0 195 23 198 20
3 22 9 25 80 3 73 2 77 -20 80 -15 2 -24 11 -26 25 -2 14 -22 36 -48 53 l-44
31 0 -56z"/>
<path d="M470 1000 c0 -69 3 -90 14 -90 18 0 18 167 -1 174 -10 4 -13 -15 -13
-84z"/>
<path d="M172 1003 c3 -87 21 -107 38 -44 13 49 -2 121 -26 121 -12 0 -14 -14
-12 -77z"/>
<path d="M425 1041 c-8 -50 4 -131 19 -131 8 0 12 26 11 85 0 58 -4 85 -12 85
-6 0 -14 -18 -18 -39z"/>
<path d="M672 1058 c5 -40 78 -32 78 8 0 10 -13 14 -41 14 -36 0 -40 -2 -37
-22z"/>
<path d="M780 1067 c0 -37 62 -51 80 -18 15 30 14 31 -35 31 -30 0 -45 -4 -45
-13z"/>
<path d="M1280 1001 c0 -44 5 -83 10 -86 6 -4 10 25 10 79 0 51 -4 86 -10 86
-6 0 -10 -33 -10 -79z"/>
<path d="M1320 994 l0 -85 38 3 37 3 3 83 3 82 -41 0 -40 0 0 -86z"/>
<path d="M1480 1001 c0 -44 5 -83 10 -86 6 -4 10 25 10 79 0 51 -4 86 -10 86
-6 0 -10 -33 -10 -79z"/>
<path d="M1520 1075 c-1 -3 -1 -40 -2 -82 l0 -78 36 -3 36 -3 0 85 0 86 -35 0
c-19 0 -35 -2 -35 -5z"/>
<path d="M1628 999 c-3 -83 -2 -92 13 -83 12 7 11 164 0 164 -5 0 -11 -36 -13
-81z"/>
<path d="M1670 995 l0 -86 48 3 47 3 0 80 0 80 -47 3 -48 3 0 -86z"/>
<path d="M1930 1067 c0 -33 53 -50 78 -25 25 25 13 38 -33 38 -30 0 -45 -4
-45 -13z"/>
<path d="M2042 1058 c5 -40 78 -32 78 8 0 10 -13 14 -41 14 -36 0 -40 -2 -37
-22z"/>
<path d="M2142 1058 c5 -40 78 -32 78 8 0 10 -13 14 -41 14 -36 0 -40 -2 -37
-22z"/>
<path d="M2282 1058 c5 -40 78 -32 78 8 0 10 -13 14 -41 14 -36 0 -40 -2 -37
-22z"/>
<path d="M2995 1070 c-11 -17 15 -50 39 -50 28 0 51 24 42 45 -6 17 -71 21
-81 5z"/>
<path d="M3198 999 c-3 -78 -4 -84 -25 -87 -21 -3 -23 -9 -23 -58 0 -30 -4
-54 -10 -54 -5 0 -10 -11 -10 -24 l0 -24 67 25 c41 15 92 25 134 26 59 2 71
-1 93 -22 34 -32 36 -67 4 -56 -42 14 -152 17 -193 5 -82 -25 -155 -98 -155
-157 0 -39 41 -90 87 -109 52 -22 175 -18 230 8 34 16 48 19 51 10 3 -11 63
-42 79 -42 3 0 3 75 1 168 -4 181 -11 209 -61 246 -30 22 -122 28 -204 13 -41
-7 -43 -6 -43 18 0 22 4 25 35 25 l35 0 0 80 c0 76 -1 80 -22 80 -13 0 -33 3
-45 6 -21 6 -22 3 -25 -77z m184 -339 c21 -6 44 -18 53 -27 15 -14 14 -18 -7
-41 -13 -13 -50 -38 -83 -53 -48 -23 -74 -29 -129 -29 -88 0 -113 17 -91 61
40 77 155 117 257 89z"/>
<path d="M3438 1074 c-13 -12 6 -45 29 -50 29 -8 59 16 50 40 -6 15 -66 23
-79 10z"/>
<path d="M3965 1063 c-80 -42 -140 -141 -151 -251 -14 -131 31 -299 99 -371
36 -38 100 -71 137 -70 20 0 17 3 -15 14 -88 31 -148 137 -166 295 -11 93 -5
170 18 240 55 163 195 204 250 72 14 -33 15 -34 31 -18 16 16 14 20 -30 62
-42 40 -51 44 -95 44 -26 -1 -61 -8 -78 -17z"/>
<path d="M4245 725 l0 -355 30 0 30 0 -3 122 -3 123 53 18 c69 24 149 77 183
121 82 107 68 263 -27 306 -24 11 -56 19 -73 19 l-30 -1 33 -8 c73 -17 110
-89 98 -190 -14 -121 -89 -206 -213 -244 l-23 -7 0 213 c0 153 3 217 12 226 9
9 3 12 -27 12 l-40 0 0 -355z"/>
<path d="M4630 1038 l1 -43 15 27 c18 34 43 48 87 48 23 0 37 -6 41 -16 11
-28 7 -644 -4 -665 -10 -17 -7 -19 27 -19 l38 0 0 347 0 348 41 3 c36 3 45 -1
73 -33 l31 -36 0 41 0 40 -175 0 -175 0 0 -42z"/>
<path d="M792 912 c-34 -2 -42 -7 -38 -18 3 -9 -1 -17 -12 -20 -9 -3 -42 -16
-72 -29 l-56 -23 -44 27 c-38 22 -57 26 -120 26 -64 0 -82 -4 -122 -27 -126
-75 -128 -222 -5 -320 54 -42 167 -104 167 -91 0 5 -22 27 -50 51 -27 23 -62
63 -76 88 -22 38 -26 53 -22 96 5 44 11 57 45 89 46 42 116 60 159 40 l24 -11
-25 -50 c-14 -27 -25 -56 -25 -63 0 -8 21 -23 47 -33 27 -11 50 -20 53 -22 3
-1 12 19 19 44 25 86 114 154 199 154 36 0 89 -26 102 -50 19 -35 3 -87 -42
-136 -41 -44 -145 -104 -182 -104 -17 0 -13 -7 24 -45 24 -25 49 -45 54 -45
24 0 118 75 145 117 73 109 43 261 -59 303 -18 7 -30 20 -30 31 0 23 -6 25
-58 21z"/>
<path d="M1070 770 c0 -96 4 -151 14 -173 18 -44 77 -94 128 -108 61 -16 180
-6 224 21 l36 21 -3 -130 c-4 -125 -5 -131 -34 -172 -54 -77 -180 -117 -280
-90 -49 13 -105 64 -105 96 0 40 60 73 163 90 l38 6 -28 39 c-24 33 -34 40
-63 40 -72 0 -162 -63 -175 -121 -5 -24 0 -41 22 -76 86 -139 364 -161 495
-40 58 54 59 60 56 378 l-3 291 -47 18 -48 18 0 -100 c0 -124 -13 -168 -63
-218 -45 -46 -91 -62 -143 -50 -74 17 -79 28 -82 225 l-3 175 -50 0 -49 0 0
-140z"/>
<path d="M2150 896 c0 -9 -19 -15 -61 -20 -33 -3 -73 -13 -89 -23 -56 -33 -68
-96 -30 -160 11 -19 20 -36 18 -37 -2 -1 -15 -7 -30 -14 -15 -6 -35 -23 -44
-37 -17 -26 -17 -29 1 -61 10 -19 37 -48 59 -64 54 -40 100 -39 215 5 49 19
97 35 106 35 29 0 71 -28 83 -55 20 -43 14 -65 -27 -106 -55 -56 -94 -54 -192
9 -73 46 -75 47 -155 47 -71 0 -85 -3 -122 -27 -58 -39 -90 -75 -118 -133 -26
-55 -35 -142 -10 -97 26 48 111 123 172 153 93 46 162 45 274 -4 47 -20 99
-39 115 -43 43 -8 81 10 101 48 31 60 -11 209 -73 258 -40 32 -115 24 -218
-22 -44 -20 -91 -39 -105 -43 -35 -8 -65 15 -57 46 10 40 59 61 156 67 127 7
179 43 168 114 -3 18 -7 42 -9 53 -5 33 29 30 51 -5 l19 -31 21 30 c18 24 20
35 11 51 -27 50 -88 61 -110 19 -19 -34 -40 -23 -40 21 l0 40 -40 0 c-27 0
-40 -4 -40 -14z m54 -72 c18 -18 21 -76 5 -105 -15 -29 -98 -79 -131 -79 -32
0 -78 39 -78 65 0 40 52 105 100 124 38 15 87 13 104 -5z"/>
<path d="M2460 680 l0 -200 40 -20 c21 -11 42 -20 45 -20 3 0 5 99 5 220 l0
220 -45 0 -45 0 0 -200z"/>
<path d="M3990 690 c0 -19 1 -20 24 -5 14 9 37 15 53 13 l28 -3 3 -149 c2
-101 -1 -153 -9 -162 -9 -12 -5 -14 27 -14 l39 0 -3 156 c-2 110 0 159 9 170
10 12 -2 14 -80 14 -85 0 -91 -1 -91 -20z"/>
</g>
</svg>
